<?xml version="1.0" encoding="utf-8"?>
<!-- Generator: Adobe Illustrator 23.0.3, SVG Export Plug-In . SVG Version: 6.00 Build 0)  -->
<svg version="1.1" id="Layer_1" xmlns="http://www.w3.org/2000/svg" xmlns:xlink="http://www.w3.org/1999/xlink" x="0px" y="0px"
	 viewBox="0 0 400 400" style="enable-background:new 0 0 400 400;" xml:space="preserve">
<style type="text/css">
	.st0{fill:#FFFFFF;}
</style>
<g id="XMLID_1_">
	<g>
		<path class="st0" d="M377.3,206.6c2.5,4.3,0.9,9.8-3.4,12.3c-4.3,2.5-9.8,1-12.3-3.4c-13.3-23.3-27.8-38.4-41.6-47.6
			c-13.8-9.2-26.9-12.6-37.7-12.6c-1.3,0-2.6,0.1-3.9,0.2h0c-8.4,0.6-15.2,3.2-20.6,6.8c-0.6,0.4-1.2,0.8-1.8,1.2
			c1.4,2.8,2.6,5.6,3.6,8.6c1.6-0.2,3.2-0.4,4.9-0.5h0c1.2-0.1,2.4-0.1,3.6-0.1c7.3,0,15,1.3,23,4.1s16.2,7.1,24.4,13.3
			c16.3,12.3,32.5,31.7,47,60.5c2.2,4.4,0.4,9.9-4,12.1c-4.4,2.2-9.9,0.5-12.1-4c-10.2-20.2-20.9-34.8-31.4-45.2
			c-10.5-10.4-20.6-16.4-29.8-19.7c-6.2-2.2-11.9-3-17.1-3c-0.9,0-1.7,0-2.6,0.1h0c-0.9,0.1-1.7,0.1-2.5,0.2
			c0.1,1.3,0.1,2.5,0.1,3.8c0,4.8-0.5,9.5-1.5,14c9.3,0.3,19.3,3.3,29,9.7c10.3,6.7,20.1,17.1,29.1,31.8
			c5.9,9.8,11.4,21.6,16.3,35.6c1.6,4.7-0.8,9.8-5.5,11.5c-4.7,1.6-9.8-0.8-11.5-5.5c-6.8-19.5-14.7-33.6-22.6-43.6
			c-7.9-9.9-15.9-15.6-23-18.6c-4.8-2-9.2-2.8-13.3-2.8H260c-1.8,0-3.5,0.2-5.2,0.4c-10.9,19.7-31.3,33-54.8,33s-43.9-13.3-54.8-33
			c-1.7-0.3-3.4-0.4-5.2-0.4h-0.2c-6,0-13.1,1.8-20.6,6.8c-7.6,5-15.7,13.2-23.5,26c-5.2,8.6-10.2,19.2-14.7,32.2
			c-1.6,4.7-6.8,7.2-11.5,5.5c-4.7-1.6-7.2-6.8-5.5-11.5c7.3-21,16-37,25.5-48.9c9.5-11.9,19.8-19.7,30.1-24
			c6.3-2.7,12.7-4,18.7-4.2c-0.9-4.5-1.5-9.2-1.5-14c0-1.3,0-2.5,0.1-3.8c-0.8-0.1-1.7-0.2-2.5-0.2h0c-0.9-0.1-1.7-0.1-2.6-0.1
			c-5.2,0-10.9,0.9-17.1,3c-6.1,2.1-12.7,5.6-19.5,10.7c-13.6,10.2-28.2,27.3-41.7,54.2c-2.2,4.5-7.6,6.2-12.1,4
			c-4.4-2.2-6.2-7.6-4-12.1c10.9-21.6,22.7-37.9,34.8-49.9c12.1-12,24.6-19.7,36.6-23.9c8-2.8,15.8-4.1,23-4.1c1.2,0,2.4,0,3.6,0.1
			h0c1.7,0.1,3.3,0.3,4.9,0.5c1-3,2.2-5.9,3.6-8.6c-2.2-1.7-4.8-3.2-7.6-4.4c-4.2-1.9-9.1-3.2-14.7-3.6h0c-1.3-0.1-2.6-0.2-3.9-0.2
			c-10.8,0-23.9,3.4-37.7,12.6c-13.8,9.2-28.3,24.2-41.6,47.6c-2.5,4.3-7.9,5.8-12.3,3.4c-4.3-2.5-5.8-7.9-3.4-12.3
			C37.1,181.3,53.5,164,70,153c16.5-11,33.1-15.6,47.7-15.6c1.8,0,3.6,0.1,5.3,0.2c11.4,0.8,21.2,4.5,29.1,9.7
			c0.7,0.5,1.4,0.9,2,1.4c2-2.1,4.1-4.2,6.3-6c-0.5-0.6-1-1.3-1.6-1.9c-6.4-7.2-15.8-13.5-27.6-16.8l-0.1,0
			c-5.6-1.6-11.7-2.5-18.2-2.5c-10.3,0-21.5,2.3-32.6,7.7c-11.2,5.4-22.4,14.1-32.7,26.9c-3.1,3.9-8.8,4.5-12.7,1.4
			s-4.5-8.8-1.4-12.6C45.5,130,58.8,119.6,72.5,113c13.6-6.7,27.5-9.6,40.5-9.6c8.2,0,15.9,1.1,23.1,3.2c11.3,3.2,21.1,8.5,29,15.2
			c4.1,3.5,7.7,7.3,10.7,11.4c7.4-3.2,15.6-5,24.2-5s16.7,1.8,24.2,5c1.1-1.5,2.3-2.9,3.5-4.4c8.7-9.9,21.1-18,36.2-22.2
			c7.2-2.1,15-3.2,23.2-3.2c13,0,26.9,2.9,40.5,9.6c13.6,6.7,27,17,38.9,31.8c3.1,3.9,2.5,9.5-1.4,12.6c-3.9,3.1-9.5,2.5-12.6-1.4
			c-10.4-12.9-21.6-21.5-32.7-26.9c-11.2-5.5-22.3-7.7-32.6-7.7c-6.5,0-12.6,0.9-18.2,2.5l-0.1,0c-8.8,2.5-16.3,6.6-22.2,11.6
			c-2.7,2.2-5,4.6-6.9,7.1c2.2,1.9,4.3,3.9,6.3,6c3.2-2.3,6.7-4.4,10.5-6.1c6.1-2.7,13-4.5,20.6-5c1.7-0.1,3.5-0.2,5.3-0.2
			c14.6,0,31.2,4.6,47.7,15.6C346.5,164,362.9,181.3,377.3,206.6z"/>
	</g>
	<g>
	</g>
</g>
</svg>
